<?xml version='1.0' encoding='utf-8'?>
<svg xmlns="http://www.w3.org/2000/svg" width="1000mm" height="1000mm" viewBox="0 0 1000000 1000000"><defs><style>.C1 {stroke: #ffffff; stroke-width: 250; stroke-opacity: 1.000; fill: none; fill-opacity: 1.000;}</style></defs><rect fill="#212830" x="0" y="0" width="1000000" height="1000000" fill-opacity="1.0" /><g stroke-linecap="round" stroke-linejoin="round" fill-rule="evenodd"><path d="M 0 833333 l 1000000 0 l 0 -666667 l -1000000 0 l 0 666667" class="C1" /><path d="M 427333 551333 c 0 4602 -3731 8333 -8333 8333 c -4602 0 -8333 -3731 -8333 -8333 c 0 -4602 3731 -8333 8333 -8333 c 4602 0 8333 3731 8333 8333" class="C1" /><path d="M 589333 551333 c 0 4602 -3731 8333 -8333 8333 c -4602 0 -8333 -3731 -8333 -8333 c 0 -4602 3731 -8333 8333 -8333 c 4602 0 8333 3731 8333 8333" class="C1" /><path d="M 427333 448667 c 0 4602 -3731 8333 -8333 8333 c -4602 0 -8333 -3731 -8333 -8333 c 0 -4602 3731 -8333 8333 -8333 c 4602 0 8333 3731 8333 8333" class="C1" /><path d="M 589333 448667 c 0 4602 -3731 8333 -8333 8333 c -4602 0 -8333 -3731 -8333 -8333 c 0 -4602 3731 -8333 8333 -8333 c 4602 0 8333 3731 8333 8333" class="C1" /><path d="M 44000 800000 c 0 5891 -4776 10667 -10667 10667 c -5891 0 -10667 -4776 -10667 -10667 c 0 -5891 4776 -10667 10667 -10667 c 5891 0 10667 4776 10667 10667" class="C1" /><path d="M 977333 800000 c 0 5891 -4776 10667 -10667 10667 c -5891 0 -10667 -4776 -10667 -10667 c 0 -5891 4776 -10667 10667 -10667 c 5891 0 10667 4776 10667 10667" class="C1" /><path d="M 44000 200000 c 0 5891 -4776 10667 -10667 10667 c -5891 0 -10667 -4776 -10667 -10667 c 0 -5891 4776 -10667 10667 -10667 c 5891 0 10667 4776 10667 10667" class="C1" /><path d="M 977333 200000 c 0 5891 -4776 10667 -10667 10667 c -5891 0 -10667 -4776 -10667 -10667 c 0 -5891 4776 -10667 10667 -10667 c 5891 0 10667 4776 10667 10667" class="C1" /></g></svg>