<?xml version='1.0' encoding='utf-8'?>
<svg xmlns="http://www.w3.org/2000/svg" width="1000mm" height="1000mm" viewBox="0 0 1000000 1000000"><defs><style>.C1 {stroke: #ffffff; stroke-width: 250; stroke-opacity: 1.000; fill: none; fill-opacity: 1.000;}</style></defs><rect fill="#212830" x="0" y="0" width="1000000" height="1000000" fill-opacity="1.0" /><g stroke-linecap="round" stroke-linejoin="round" fill-rule="evenodd"><path d="M 121212 752525 l 757576 0 l 0 -505051 l -757576 0 l 0 505051" class="C1" /><path d="M 60606 500000 c 0 16736 -13567 30303 -30303 30303 c -16736 0 -30303 -13567 -30303 -30303 c 0 -16736 13567 -30303 30303 -30303 c 16736 0 30303 13567 30303 30303" class="C1" /><path d="M 217172 500000 c 0 16736 -13567 30303 -30303 30303 c -16736 0 -30303 -13567 -30303 -30303 c 0 -16736 13567 -30303 30303 -30303 c 16736 0 30303 13567 30303 30303" class="C1" /><path d="M 373737 500000 c 0 16736 -13567 30303 -30303 30303 c -16736 0 -30303 -13567 -30303 -30303 c 0 -16736 13567 -30303 30303 -30303 c 16736 0 30303 13567 30303 30303" class="C1" /><path d="M 530303 500000 c 0 16736 -13567 30303 -30303 30303 c -16736 0 -30303 -13567 -30303 -30303 c 0 -16736 13567 -30303 30303 -30303 c 16736 0 30303 13567 30303 30303" class="C1" /><path d="M 686869 500000 c 0 16736 -13567 30303 -30303 30303 c -16736 0 -30303 -13567 -30303 -30303 c 0 -16736 13567 -30303 30303 -30303 c 16736 0 30303 13567 30303 30303" class="C1" /><path d="M 843434 500000 c 0 16736 -13567 30303 -30303 30303 c -16736 0 -30303 -13567 -30303 -30303 c 0 -16736 13567 -30303 30303 -30303 c 16736 0 30303 13567 30303 30303" class="C1" /><path d="M 1000000 500000 c 0 16736 -13567 30303 -30303 30303 c -16736 0 -30303 -13567 -30303 -30303 c 0 -16736 13567 -30303 30303 -30303 c 16736 0 30303 13567 30303 30303" class="C1" /><path d="M 835859 297980 c 0 4184 -3392 7576 -7576 7576 c -4184 0 -7576 -3392 -7576 -7576 c 0 -4184 3392 -7576 7576 -7576 c 4184 0 7576 3392 7576 7576" class="C1" /><path d="M 154545 727273 c 0 4463 -3618 8081 -8081 8081 c -4463 0 -8081 -3618 -8081 -8081 c 0 -4463 3618 -8081 8081 -8081 c 4463 0 8081 3618 8081 8081" class="C1" /><path d="M 861616 727273 c 0 4463 -3618 8081 -8081 8081 c -4463 0 -8081 -3618 -8081 -8081 c 0 -4463 3618 -8081 8081 -8081 c 4463 0 8081 3618 8081 8081" class="C1" /><path d="M 154545 272727 c 0 4463 -3618 8081 -8081 8081 c -4463 0 -8081 -3618 -8081 -8081 c 0 -4463 3618 -8081 8081 -8081 c 4463 0 8081 3618 8081 8081" class="C1" /><path d="M 861616 272727 c 0 4463 -3618 8081 -8081 8081 c -4463 0 -8081 -3618 -8081 -8081 c 0 -4463 3618 -8081 8081 -8081 c 4463 0 8081 3618 8081 8081" class="C1" /></g></svg>